<?xml version="1.0" encoding="utf-8"?>
<!-- Generator: Adobe Illustrator 22.0.1, SVG Export Plug-In . SVG Version: 6.00 Build 0)  -->
<svg version="1.1" id="ic_x5F_cc_x5F_app_x5F_RGB.svg"
	 xmlns="http://www.w3.org/2000/svg" xmlns:xlink="http://www.w3.org/1999/xlink" x="0px" y="0px" width="240px" height="234px"
	 viewBox="0 0 240 234" style="enable-background:new 0 0 240 234;" xml:space="preserve">
<rect style="fill:#FF5FF8;" width="240" height="234"/>
<rect x="10" y="10" style="fill:#2B0028;" width="220" height="214"/>
<path style="fill:#FF5FF8;" d="M95.5,162.2c0,1-0.2,1.3-1.3,1.3H78.8c-1,0-1.3-0.5-1.3-1.3V54.8c0-1,0.5-1.3,1.3-1.3h15.5
	c0.8,0,1.2,0.3,1.2,1.2V162.2z M169.3,161.4c0,0.7-0.2,1-0.8,1.3c-4.3,1.6-9.5,2.1-15,2.1c-23.4,0-37.1-17.3-37.1-41.9
	c0-24.1,15.5-42.2,39.3-42.2c6.4,0,10.4,0.5,12.9,1.5c0.7,0.5,0.8,0.8,0.8,1.7l-0.2,13.7c0,0.8-0.5,1-1.2,0.8
	c-2.8-1.2-6.4-1.8-11.4-1.8c-13,0-21.9,9.1-21.9,25.6c0,19.5,11.2,26.2,22.3,26.2c4.8,0,8.7-0.5,11.2-1.5c0.8-0.2,1.2,0.2,1.2,0.8
	L169.3,161.4L169.3,161.4z"/>
</svg>
